<svg xmlns="http://www.w3.org/2000/svg" width="841" height="595"><style>.st2{fill:#8dcbed}.st1{fill:#525ca8}.st0{fill:#0a1a59}</style><path class="st0" d="M305.79 374.32h-9.41V235.35l58.5-59.7 6.49 6.81-55.58 56.92z"/><path class="st1" d="M420.06 95.6l-66.73 63.51v215.11h9.41V163.14l57.32-54.55v28.46h9.07V87.19z"/><path class="st2" d="M276.07 374.32h-9.41l.01-64.95 15.09-17.35 7.1 6.18-12.79 14.69zm272.46-.32v-61.43l-12.78-14.7V285.3l22.19 23.75V374z"/><path class="st0" d="M518.82 374.22V228.56L455 167.83l6.49-6.81 66.73 63.51.01 149.69z"/><path class="st1" d="M427.87 374h-9.41V158.31l79.57 75.76v140.15h-9.41V238.1l-60.75-57.84z"/><path d="M333.02 374.22V247.15l12.79-14.69v-12.58l-22.19 23.74-.01 130.6z" fill="#a6bbe1"/><path class="st2" d="M452.85 374h9.42l.82-281.11-79.57 75.75v205.58h9.41V172.67l60.75-57.83z"/><path class="st1" d="M310.04 474.09c.5 1.91.99 4.61 1.47 8.08-.09.13-.18.2-.27.2-.12 0-.25-.07-.39-.2-1.18-1.91-2.31-3.36-3.4-4.35-1.08-1-2.16-1.7-3.25-2.12-1.1-.43-2.97-.64-5.62-.64-2.52 0-4.49.15-5.95.44-.14.17-.21.49-.21.95 0 .12-.02.33-.05.64-.18 1.37-.26 5.09-.26 11.15 0 .25.02.61.05 1.08 1.31.05 2.2.07 2.68.07 2.16 0 3.73-.32 4.7-.96.97-.65 1.81-2.04 2.54-4.18.11-.36.28-.54.5-.54.33 0 .49.25.49.75l-.1 1.03c-.14 1.35-.21 2.76-.21 4.2 0 2.34.04 4.44.13 6.31 0 .59-.16.88-.47.88-.24 0-.39-.21-.47-.61-.37-2.03-1.12-3.49-2.28-4.38-1.15-.89-3.65-1.34-7.51-1.34-.05 1.25-.07 3.28-.07 6.07 0 3.62.12 5.92.38 6.9.26.97.87 1.75 1.85 2.33.98.57 2.64.86 4.97.86 6.68 0 10.99-2.3 12.93-6.9.24-.56.48-.84.73-.84.27 0 .41.18.41.56 0 .2-.05.43-.13.67-.1.33-.35 1.54-.74 3.66-.09.44-.41 1.78-.98 4.01l-10.78-.03c-1.54 0-3.82-.06-6.81-.19-2.99-.13-5.64-.2-7.95-.21-2.3-.01-3.51-.05-3.61-.14-.1-.09-.16-.18-.16-.28 0-.35.29-.52.85-.52 1.91 0 3.16-.5 3.76-1.51.6-1.02.9-3.47.9-7.38l-.02-5.27.07-4.94c0-.99-.06-2.87-.16-5.64-.12-2.77-.22-4.35-.31-4.74-.1-.4-.37-.79-.8-1.17-.44-.39-1.4-.78-2.9-1.17-.44-.12-.66-.31-.66-.57 0-.31.3-.46.9-.46l5.24.28c1.86.09 6.41.13 13.66.13 4.78 0 7.21.01 7.31.03m41.46 1.51c.46-.46.77-.94.93-1.44.13-.41.33-.61.59-.61.14 0 .29.08.46.25.12.62.29 1.86.51 3.73l.62 4.84c0 .31-.18.46-.57.46-.2 0-.38-.17-.53-.51-.91-2.25-2.26-4.12-4.04-5.61-1.78-1.47-3.73-2.21-5.85-2.21-2.07 0-3.63.62-4.69 1.88-1.05 1.25-1.58 2.58-1.58 3.99 0 1.71.57 3.02 1.73 3.93 1.14.91 3.51 1.94 7.09 3.09 2.65.82 4.62 1.61 5.93 2.39 1.32.77 2.42 1.85 3.31 3.24.89 1.39 1.34 2.88 1.34 4.48 0 2.71-1.12 5.14-3.38 7.28-2.24 2.14-4.99 3.22-8.25 3.22-2.93 0-5.88-.93-8.85-2.76-.59.48-.96 1.05-1.13 1.7-.14.55-.36.82-.67.82-.28 0-.47-.35-.59-1.05-.13-.7-.37-4.03-.75-9.98.07-.21.25-.31.54-.31.26 0 .47.19.62.57 2.64 6.63 6.33 9.95 11.06 9.95 2.35 0 4.19-.71 5.52-2.12 1.33-1.42 1.99-3.04 1.99-4.88 0-1.27-.35-2.43-1.07-3.5a7.978 7.978 0 00-2.83-2.57c-1.17-.65-3.03-1.38-5.57-2.19-3.25-1.04-5.47-2.03-6.65-2.97-1.17-.93-2.03-1.99-2.58-3.16-.55-1.18-.82-2.31-.82-3.41 0-2.29 1.03-4.3 3.09-6.07 2.07-1.77 4.61-2.65 7.61-2.65 1.13 0 2.31.18 3.56.54 1.25.36 2.55.91 3.9 1.64m38.93-.41c-1.33-.07-2.28-.1-2.83-.1-3.71 0-6.39.78-8.05 2.32-1.67 1.55-2.64 2.93-2.91 4.13-.09.44-.32.65-.69.65-.18 0-.34-.08-.48-.25.07-2.04.41-4.8 1-8.27.82-.01 1.34-.02 1.56-.02 1.34 0 3.13.07 5.38.2 2.42.14 6.13.21 11.11.21 5.12 0 8.44-.06 9.99-.18 1.4-.14 3.33-.21 5.78-.21.21 1.24.35 2.52.41 3.86.11 1.53.21 2.6.32 3.22.01.14.02.28.02.43 0 .42-.18.62-.54.62a.77.77 0 01-.55-.21c-.14-.15-.47-.63-.99-1.46-.89-1.39-1.81-2.44-2.78-3.15a7.43 7.43 0 00-3.21-1.38c-1.19-.2-3.58-.34-7.18-.41-.21 2.59-.31 5.55-.31 8.88 0 11.01.23 17.5.71 19.47.47 1.98 2.16 2.96 5.05 2.96.7 0 1.05.15 1.05.44 0 .34-.33.51-1 .51h-15.82c-.41 0-.62-.16-.62-.49 0-.32.4-.49 1.21-.49 1.35 0 2.45-.38 3.29-1.14.82-.76 1.31-1.79 1.43-3.1.13-1.3.19-5.07.19-11.3 0-5.31-.18-10.56-.54-15.74m49.73 3.53c-1.59 3.26-3.46 7.99-5.59 14.2 1.77-.09 3.04-.13 3.81-.13l7.23.13c-.63-1.78-1.52-4.15-2.67-7.1-1.41-3.52-2.33-5.89-2.78-7.1zm1.03-5.61h1.19c1.92 3.93 4.56 10.64 7.93 20.15 2.17 6.08 3.66 9.81 4.47 11.2.81 1.38 2.1 2.14 3.89 2.3.57.05.85.24.85.57 0 .23-.14.35-.43.35l-.36-.02c-1.58-.14-3.59-.21-6.03-.21-3.73 0-6.14.07-7.2.18-.53 0-.8-.15-.8-.46 0-.22.2-.36.6-.41 1.45-.14 2.46-.38 3.02-.75.56-.36.84-.92.84-1.69 0-.74-.52-2.59-1.57-5.54l-1.51-4.42c-.9 0-4.89.05-11.97.15-1.79 4.76-2.68 7.75-2.68 8.99 0 1.05.44 1.83 1.33 2.34.88.51 1.75.79 2.61.84.63.05.95.25.95.58 0 .13-.1.26-.31.37-2.75-.11-4.4-.18-4.97-.18-2.88 0-4.82.04-5.81.11-.55 0-.82-.16-.82-.47 0-.27.23-.44.72-.51 1.97-.26 3.48-1.59 4.53-4.02 1.04-2.42 2.67-6.76 4.89-13.03 2.02-5.72 4.24-11.19 6.64-16.42m47.11 2.08c-1.34-.07-2.28-.1-2.84-.1-3.7 0-6.39.78-8.05 2.32-1.67 1.55-2.64 2.93-2.91 4.13-.08.44-.32.65-.69.65-.17 0-.33-.08-.48-.25.08-2.04.41-4.8 1-8.27.82-.01 1.34-.02 1.56-.02 1.35 0 3.13.07 5.38.2 2.42.14 6.13.21 11.12.21 5.11 0 8.44-.06 9.98-.18 1.41-.14 3.33-.21 5.78-.21.21 1.24.35 2.52.42 3.86.1 1.53.2 2.6.31 3.22.02.14.02.28.02.43 0 .42-.17.62-.53.62-.22 0-.41-.07-.55-.21-.14-.15-.48-.63-.99-1.46-.9-1.39-1.82-2.44-2.79-3.15-.95-.72-2.02-1.17-3.21-1.38-1.18-.2-3.58-.34-7.18-.41-.21 2.59-.31 5.55-.31 8.88 0 11.01.23 17.5.71 19.47.47 1.98 2.16 2.96 5.05 2.96.71 0 1.05.15 1.05.44 0 .34-.33.51-1 .51h-15.82c-.41 0-.61-.16-.61-.49 0-.32.4-.49 1.2-.49 1.35 0 2.45-.38 3.29-1.14.82-.76 1.31-1.79 1.43-3.1.13-1.3.2-5.07.2-11.3 0-5.31-.18-10.56-.54-15.74m66.93-1.1c.49 1.91.98 4.61 1.46 8.08-.08.13-.18.2-.27.2-.12 0-.25-.07-.39-.2-1.18-1.91-2.31-3.36-3.39-4.35-1.08-1-2.17-1.7-3.26-2.12-1.09-.43-2.97-.64-5.62-.64-2.51 0-4.49.15-5.95.44-.14.17-.21.49-.21.95 0 .12-.02.33-.05.64-.17 1.37-.26 5.09-.26 11.15 0 .25.02.61.05 1.08 1.31.05 2.2.07 2.68.07 2.17 0 3.73-.32 4.7-.96.97-.65 1.82-2.04 2.54-4.18.12-.36.29-.54.51-.54.32 0 .48.25.48.75l-.1 1.03c-.14 1.35-.21 2.76-.21 4.2 0 2.34.05 4.44.14 6.31 0 .59-.17.88-.48.88-.23 0-.39-.21-.47-.61-.36-2.03-1.12-3.49-2.27-4.38-1.16-.89-3.66-1.34-7.52-1.34-.05 1.25-.07 3.28-.07 6.07 0 3.62.13 5.92.38 6.9.26.97.88 1.75 1.85 2.33.98.57 2.64.86 4.98.86 6.67 0 10.98-2.3 12.92-6.9.24-.56.48-.84.74-.84.27 0 .4.18.4.56 0 .2-.04.43-.12.67-.11.33-.36 1.54-.75 3.66-.09.44-.41 1.78-.98 4.01l-10.78-.03c-1.54 0-3.81-.06-6.81-.19-2.98-.13-5.64-.2-7.94-.21-2.31-.01-3.51-.05-3.61-.14-.11-.09-.16-.18-.16-.28 0-.35.28-.52.85-.52 1.9 0 3.15-.5 3.75-1.51.61-1.02.9-3.47.9-7.38l-.02-5.27.08-4.94c0-.99-.06-2.87-.17-5.64-.11-2.77-.22-4.35-.31-4.74-.1-.4-.36-.79-.8-1.17-.44-.39-1.4-.78-2.89-1.17-.45-.12-.67-.31-.67-.57 0-.31.3-.46.9-.46l5.25.28c1.85.09 6.4.13 13.66.13 4.77 0 7.2.01 7.31.03"/><path class="st0" d="M269.76 397.27c-3.37 6.89-7.32 16.91-11.82 30.04 3.73-.18 6.42-.27 8.05-.27l15.3.27c-1.34-3.77-3.22-8.78-5.66-15.02-2.97-7.44-4.92-12.45-5.87-15.02zm2.18-11.87h2.51c4.06 8.31 9.65 22.52 16.78 42.62 4.6 12.88 7.75 20.78 9.46 23.7 1.71 2.93 4.45 4.55 8.24 4.88 1.2.1 1.79.5 1.79 1.19 0 .51-.31.77-.92.77l-.76-.06c-3.34-.29-7.59-.43-12.74-.43-7.91 0-12.99.12-15.24.38-1.12 0-1.69-.33-1.69-.98 0-.47.42-.77 1.25-.87 3.09-.29 5.22-.82 6.4-1.58 1.18-.76 1.77-1.96 1.77-3.59 0-1.57-1.1-5.47-3.32-11.71l-3.2-9.36c-1.89 0-10.32.11-25.31.33-3.78 10.05-5.67 16.39-5.67 19.01 0 2.23.93 3.88 2.8 4.95 1.87 1.08 3.71 1.67 5.53 1.78 1.34.11 2.01.52 2.01 1.22 0 .28-.22.55-.65.8-5.81-.26-9.31-.38-10.51-.38-6.1 0-10.2.07-12.3.22-1.16 0-1.74-.33-1.74-.98 0-.59.51-.95 1.52-1.09 4.17-.55 7.37-3.38 9.58-8.5 2.21-5.11 5.67-14.31 10.35-27.59 4.29-12.09 8.97-23.66 14.06-34.73m79.76 73.86h-3.21c-1.71-5.47-4.39-12.95-8.05-22.42l-10.29-26.51c-3.2-8.2-5.42-13.32-6.67-15.35-1.25-2.03-2.48-3.41-3.68-4.14-1.19-.72-2.88-1.18-5.06-1.35-.9-.08-1.36-.41-1.36-.98 0-.7.46-1.04 1.36-1.04h28.52c1.78 0 2.67.31 2.67.92 0 .8-.58 1.2-1.74 1.2-4.79 0-7.19 2.05-7.19 6.15 0 .98.22 2.54.66 4.68.43 2.14 1.19 4.78 2.26 7.9 1.07 3.12 3.37 9.51 6.91 19.18s5.79 15.62 6.77 17.83l11.65-32.28c3.35-9.14 5.01-14.89 5.01-17.25 0-3.81-2.36-5.92-7.07-6.31-.95-.08-1.42-.42-1.42-1.04 0-.4.18-.66.52-.79s1.35-.19 3.02-.19h18.17c1.64 0 2.63.05 2.98.13.34.1.52.36.52.79 0 .66-.72 1.1-2.13 1.31-2.73.4-4.76 1.39-6.12 2.97-1.36 1.58-2.67 3.47-3.92 5.66s-4.6 10.93-10.05 26.21c-1.92 5.37-6.28 16.94-13.06 34.72m54.58-72.99l9.93.22 15.21-.22c1.82 0 2.73.37 2.73 1.09 0 .55-.49.89-1.47 1.03-4.02.52-6.54 1.97-7.53 4.36-1 2.4-1.5 11.25-1.5 26.56 0 5.62.14 11.96.43 19 .29 7.04.62 11.24.98 12.63.36 1.37 1.05 2.5 2.07 3.37 1.02.87 2.91 1.49 5.66 1.85.91.11 1.36.45 1.36 1.03 0 .66-.42.99-1.25.99l-13.53-.11-11.51.16c-1.27 0-1.9-.36-1.9-1.09 0-.76.5-1.14 1.52-1.14 3.38-.07 5.35-1.2 5.94-3.38.57-2.17.86-9.12.86-20.84 0-11.33-.09-20.49-.29-27.49-.2-7-.79-11.28-1.77-12.85-.98-1.55-2.83-2.53-5.56-2.93-1.02-.19-1.52-.6-1.52-1.26 0-.65.38-.98 1.14-.98m85.02 72.99h-3.22c-1.71-5.47-4.38-12.95-8.05-22.42l-10.29-26.51c-3.19-8.2-5.41-13.32-6.67-15.35-1.25-2.03-2.48-3.41-3.67-4.14-1.2-.72-2.89-1.18-5.07-1.35-.9-.08-1.36-.41-1.36-.98 0-.7.46-1.04 1.36-1.04h28.52c1.78 0 2.68.31 2.68.92 0 .8-.59 1.2-1.75 1.2-4.79 0-7.18 2.05-7.18 6.15 0 .98.22 2.54.65 4.68.44 2.14 1.19 4.78 2.26 7.9 1.07 3.12 3.37 9.51 6.91 19.18s5.8 15.62 6.78 17.83l11.65-32.28c3.34-9.14 5.01-14.89 5.01-17.25 0-3.81-2.36-5.92-7.08-6.31-.94-.08-1.41-.42-1.41-1.04 0-.4.17-.66.51-.79.35-.13 1.35-.19 3.02-.19h18.18c1.64 0 2.62.05 2.97.13.34.1.52.36.52.79 0 .66-.71 1.1-2.13 1.31-2.72.4-4.76 1.39-6.12 2.97-1.36 1.58-2.67 3.47-3.92 5.66s-4.6 10.93-10.04 26.21c-1.93 5.37-6.28 16.94-13.06 34.72m71.86-61.99c-3.38 6.89-7.33 16.91-11.83 30.04 3.73-.18 6.42-.27 8.06-.27l15.29.27c-1.34-3.77-3.22-8.78-5.65-15.02-2.98-7.44-4.93-12.45-5.87-15.02zm2.17-11.87h2.52c4.05 8.31 9.64 22.52 16.77 42.62 4.6 12.88 7.75 20.78 9.46 23.7 1.7 2.93 4.46 4.55 8.24 4.88 1.2.1 1.8.5 1.8 1.19 0 .51-.31.77-.93.77l-.76-.06c-3.34-.29-7.58-.43-12.74-.43-7.91 0-12.98.12-15.24.38-1.12 0-1.69-.33-1.69-.98 0-.47.42-.77 1.26-.87 3.08-.29 5.22-.82 6.39-1.58 1.19-.76 1.77-1.96 1.77-3.59 0-1.57-1.1-5.47-3.31-11.71l-3.21-9.36c-1.89 0-10.32.11-25.31.33-3.78 10.05-5.67 16.39-5.67 19.01 0 2.23.93 3.88 2.8 4.95 1.87 1.08 3.71 1.67 5.53 1.78 1.34.11 2.01.52 2.01 1.22 0 .28-.21.55-.65.8-5.8-.26-9.31-.38-10.51-.38-6.09 0-10.19.07-12.3.22-1.16 0-1.73-.33-1.73-.98 0-.59.5-.95 1.52-1.09 4.17-.55 7.36-3.38 9.58-8.5 2.21-5.11 5.66-14.31 10.34-27.59 4.29-12.09 8.98-23.66 14.06-34.73"/></svg>