<svg viewBox="0 0 512 512" xmlns="http://www.w3.org/2000/svg" xmlns:xlink="http://www.w3.org/1999/xlink"><style>:root&gt;svg{display:none}:root&gt;svg:target{display:block}</style><svg viewBox="0 0 16 6" id="arrow-right" xmlns="http://www.w3.org/2000/svg"><path d="M.071 3.5v-1h12.572V0l3.428 3-3.428 3V3.5H.07z"/></svg><svg viewBox="0 0 512 512" id="bathroom" xmlns="http://www.w3.org/2000/svg"><path d="M496 288h-96v-32h64c8.838 0 16-7.164 16-15.1v-15.1c0-8.838-7.162-16-16-16l-80-1.8c-17.67 0-32 14.33-32 32v47.1h-64v-192c0-17.64 14.36-32 32-32s32 14.36 32 32v16c0 8.837 7.164 16 16 16h32c8.838 0 16-7.163 16-16v-16c0-59.2-53.85-106-115.1-94.14-45.6 9.75-76.9 52.4-76.9 98.83v188.2l-64 .01v-48c0-17.67-14.33-32-32-32H48c-8.836 0-16 7.162-16 16v15.1c0 9.7 7.16 16.9 16 16.9h64v32H16c-8.836 0-16 7.164-16 16v32c0 8.836 7.164 16 16 16h480c8.836 0 16-7.164 16-16v-32c0-8.8-7.2-16-16-16zM32 416c0 53.02 42.98 96 96 96h256c53.02 0 96-42.98 96-96v-32H32v32z"/></svg><svg viewBox="0 0 30 30" id="bed" xmlns="http://www.w3.org/2000/svg"><path d="M2 15h26v10H2zm26 11V15M2 26V15M25 4H5a2 2 0 00-2 2v7h2v-2a1 1 0 011-1h7a1 1 0 011 1v2h2v-2a1 1 0 011-1h7a1 1 0 011 1v2h2V6a2 2 0 00-2-2z"/></svg><svg viewBox="0 0 18 14" id="check" xmlns="http://www.w3.org/2000/svg"><path d="M1 7l6 6L17 1"/></svg><svg viewBox="0 0 491.996 491.996" id="chevron" xmlns="http://www.w3.org/2000/svg"><path d="M484.132 124.986l-16.116-16.228c-5.072-5.068-11.82-7.86-19.032-7.86-7.208 0-13.964 2.792-19.036 7.86l-183.84 183.848L62.056 108.554c-5.064-5.068-11.82-7.856-19.028-7.856s-13.968 2.788-19.036 7.856l-16.12 16.128c-10.496 10.488-10.496 27.572 0 38.06l219.136 219.924c5.064 5.064 11.812 8.632 19.084 8.632h.084c7.212 0 13.96-3.572 19.024-8.632l218.932-219.328c5.072-5.064 7.856-12.016 7.864-19.224 0-7.212-2.792-14.068-7.864-19.128z"/></svg><svg viewBox="0 0 24 24" stroke-width="1.5" class="fw-6 fh-6" id="chevron-double-right" xmlns="http://www.w3.org/2000/svg"><path d="M11.25 4.5l7.5 7.5-7.5 7.5m-6-15l7.5 7.5-7.5 7.5"/></svg><svg viewBox="0 0 16 16" id="close" xmlns="http://www.w3.org/2000/svg"><path d="M9.175 8l6.075-6.075A.833.833 0 0014.075.75L8 6.825 1.925.742A.833.833 0 00.75 1.917L6.825 8 .742 14.075a.834.834 0 101.175 1.175L8 9.175l6.075 6.075a.833.833 0 001.175-1.175L9.175 8z"/></svg><svg viewBox="0 0 24 24" id="email" xmlns="http://www.w3.org/2000/svg"><path d="M20 3H4C1.8 3 0 4.8 0 7v10c0 2.2 1.8 4 4 4h16c2.2 0 4-1.8 4-4V7c0-2.2-1.8-4-4-4zm1.6 5.8l-7.9 5.3c-.5.3-1.1.5-1.7.5s-1.2-.2-1.7-.5L2.4 8.8c-.4-.3-.5-.9-.2-1.4.3-.4.9-.5 1.4-.2l7.9 5.3c.3.2.8.2 1.1 0l7.9-5.3c.5-.3 1.1-.2 1.4.3.2.4.1 1-.3 1.3z"/></svg><svg viewBox="0 0 512 512" id="eye" xmlns="http://www.w3.org/2000/svg"><path d="M256 128c-81.9 0-145.7 48.8-224 128 67.4 67.7 124 128 224 128 99.9 0 173.4-76.4 224-126.6C428.2 198.6 354.8 128 256 128zm0 219.3c-49.4 0-89.6-41-89.6-91.3 0-50.4 40.2-91.3 89.6-91.3s89.6 41 89.6 91.3c0 50.4-40.2 91.3-89.6 91.3z"/><path d="M256 224c0-7.9 2.9-15.1 7.6-20.7-2.5-.4-5-.6-7.6-.6-28.8 0-52.3 23.9-52.3 53.3s23.5 53.3 52.3 53.3 52.3-23.9 52.3-53.3c0-2.3-.2-4.6-.4-6.9-5.5 4.3-12.3 6.9-19.8 6.9-17.8 0-32.1-14.3-32.1-32z"/></svg><svg viewBox="0 0 56.693 56.693" id="facebook" xmlns="http://www.w3.org/2000/svg"><path d="M40.43 21.739h-7.645v-5.014c0-1.883 1.248-2.322 2.127-2.322h5.395V6.125l-7.43-.029c-8.248 0-10.125 6.174-10.125 10.125v5.518h-4.77v8.53h4.77v24.137h10.033V30.269h6.77l.875-8.53z"/></svg><svg viewBox="0 0 56.7 56.7" id="instagram" xmlns="http://www.w3.org/2000/svg"><path d="M28.2 16.7c-7 0-12.8 5.7-12.8 12.8s5.7 12.8 12.8 12.8S41 36.5 41 29.5s-5.8-12.8-12.8-12.8zm0 21c-4.5 0-8.2-3.7-8.2-8.2s3.7-8.2 8.2-8.2 8.2 3.7 8.2 8.2-3.7 8.2-8.2 8.2z"/><circle cx="41.5" cy="16.4" r="2.9"/><path d="M49 8.9c-2.6-2.7-6.3-4.1-10.5-4.1H17.9c-8.7 0-14.5 5.8-14.5 14.5v20.5c0 4.3 1.4 8 4.2 10.7 2.7 2.6 6.3 3.9 10.4 3.9h20.4c4.3 0 7.9-1.4 10.5-3.9 2.7-2.6 4.1-6.3 4.1-10.6V19.3c0-4.2-1.4-7.8-4-10.4zm-.4 31c0 3.1-1.1 5.6-2.9 7.3s-4.3 2.6-7.3 2.6H18c-3 0-5.5-.9-7.3-2.6C8.9 45.4 8 42.9 8 39.8V19.3c0-3 .9-5.5 2.7-7.3 1.7-1.7 4.3-2.6 7.3-2.6h20.6c3 0 5.5.9 7.3 2.7 1.7 1.8 2.7 4.3 2.7 7.2v20.6z"/></svg><svg viewBox="0 0 32 32" id="location" xmlns="http://www.w3.org/2000/svg"><path d="M16 2A11.013 11.013 0 005 13a10.889 10.889 0 002.216 6.6s.3.395.349.452L16 30l8.439-9.953c.044-.053.345-.447.345-.447l.001-.003A10.885 10.885 0 0027 13 11.013 11.013 0 0016 2zm0 15a4 4 0 110-8 4 4 0 010 8z"/></svg><svg viewBox="0 0 20 16" id="mail" xmlns="http://www.w3.org/2000/svg"><path d="M20 4.608v8.142a3.25 3.25 0 01-3.066 3.245L16.75 16H3.25a3.25 3.25 0 01-3.245-3.066L0 12.75V4.608l9.652 5.056a.75.75 0 00.696 0L20 4.608zM3.25 0h13.5a3.25 3.25 0 013.234 2.924L10 8.154.016 2.924A3.25 3.25 0 013.064.005L3.25 0h13.5-13.5z"/></svg><svg viewBox="0 0 18 18" id="phone" xmlns="http://www.w3.org/2000/svg"><path d="M10 6H8v2h2V6zm4 0h-2v2h2V6zm3 6.5c-1.2 0-2.4-.2-3.6-.6-.3-.1-.7 0-1 .2l-2.2 2.2c-2.8-1.4-5.1-3.8-6.6-6.6l2.2-2.2c.3-.3.4-.7.2-1-.3-1.1-.5-2.3-.5-3.5 0-.6-.4-1-1-1H1C.4 0 0 .4 0 1c0 9.4 7.6 17 17 17 .6 0 1-.4 1-1v-3.5c0-.6-.4-1-1-1zM16 6v2h2V6h-2z" fill-rule="evenodd"/></svg><svg viewBox="0 0 512 512" id="phone-2" xmlns="http://www.w3.org/2000/svg"><path d="M511.2 387l-23.25 100.8c-3.266 14.25-15.79 24.22-30.46 24.22C205.2 512 0 306.8 0 54.5c0-14.66 9.969-27.2 24.22-30.45L125.02.8c14.68-3.402 29.68 4.218 35.78 18.12l46.52 108.5c5.438 12.78 1.77 27.67-8.98 36.45L144.5 207.1c33.98 69.22 90.26 125.5 159.5 159.5l44.08-53.8c8.688-10.78 23.69-14.51 36.47-8.975l108.5 46.51C506.1 357.2 514.6 372.4 511.2 387z"/></svg><svg viewBox="0 0 512 512" id="play-button" xmlns="http://www.w3.org/2000/svg"><path d="M256 0C114.833 0 0 114.844 0 256s114.833 256 256 256 256-114.844 256-256S397.167 0 256 0zm101.771 264.969l-149.333 96a10.62 10.62 0 01-5.771 1.698c-1.75 0-3.521-.438-5.104-1.302A10.653 10.653 0 01192 352V160c0-3.906 2.125-7.49 5.563-9.365 3.375-1.854 7.604-1.74 10.875.396l149.333 96c3.042 1.958 4.896 5.344 4.896 8.969s-1.854 7.01-4.896 8.969z"/></svg><svg viewBox="0 0 32 32" id="search" xmlns="http://www.w3.org/2000/svg"><path d="M29.71 28.29l-6.5-6.5h-.07a12 12 0 10-1.39 1.39v.07l6.5 6.5a1 1 0 001.42 0 1 1 0 00.04-1.46zM14 24a10 10 0 1110-10 10 10 0 01-10 10z"/></svg><svg viewBox="0 0 448 512" id="telegram" xmlns="http://www.w3.org/2000/svg"><path d="M446.7 98.6l-67.6 318.8c-5.1 22.5-18.4 28.1-37.3 17.5l-103-75.9-49.7 47.8c-5.5 5.5-10.1 10.1-20.7 10.1l7.4-104.9 190.9-172.5c8.3-7.4-1.8-11.5-12.9-4.1L117.8 284 16.2 252.2c-22.1-6.9-22.5-22.1 4.6-32.7L418.2 66.4c18.4-6.9 34.5 4.1 28.5 32.2z"/></svg><svg viewBox="0 0 24 24" id="whatsapp" xmlns="http://www.w3.org/2000/svg"><path d="M12.001 2c5.523 0 10 4.477 10 10s-4.477 10-10 10a9.953 9.953 0 01-5.03-1.355L2.005 22l1.352-4.968A9.953 9.953 0 012.001 12c0-5.523 4.477-10 10-10zM8.593 7.3l-.2.008a.961.961 0 00-.372.1 1.293 1.293 0 00-.294.228c-.12.113-.188.211-.261.306A2.73 2.73 0 006.9 9.62c.002.49.13.967.33 1.413.409.902 1.082 1.857 1.97 2.742.214.213.424.427.65.626a9.448 9.448 0 003.84 2.046l.568.087c.185.01.37-.004.556-.013a1.99 1.99 0 00.833-.231c.13-.067.259-.14.383-.22 0 0 .043-.028.125-.09.135-.1.218-.171.33-.288.083-.086.155-.187.21-.302.078-.163.156-.474.188-.733.024-.198.017-.306.014-.373-.004-.107-.093-.218-.19-.265l-.582-.261s-.87-.379-1.402-.621a.497.497 0 00-.176-.041.483.483 0 00-.378.127c-.005-.002-.072.055-.795.931a.35.35 0 01-.368.13 1.427 1.427 0 01-.191-.066c-.124-.052-.167-.072-.252-.108a6.028 6.028 0 01-1.575-1.003c-.126-.11-.243-.23-.363-.346a6.298 6.298 0 01-1.02-1.268l-.059-.095a.922.922 0 01-.102-.205c-.038-.147.061-.265.061-.265s.243-.266.356-.41c.11-.14.203-.276.263-.373.118-.19.155-.385.093-.536-.28-.684-.57-1.365-.868-2.041-.059-.134-.234-.23-.393-.249a4.439 4.439 0 00-.162-.016 3.385 3.385 0 00-.403.004l.201-.008.001.001z"/></svg><svg viewBox="0 0 512 512" id="youtube" xmlns="http://www.w3.org/2000/svg"><path d="M508.6 148.8c0-45-33.1-81.2-74-81.2C379.2 65 322.7 64 265 64h-18c-57.6 0-114.2 1-169.6 3.6C36.6 67.6 3.5 104 3.5 149 1 184.6-.1 220.2 0 255.8c-.1 35.6 1 71.2 3.4 106.9 0 45 33.1 81.5 73.9 81.5 58.2 2.7 117.9 3.9 178.6 3.8 60.8.2 120.3-1 178.6-3.8 40.9 0 74-36.5 74-81.5 2.4-35.7 3.5-71.3 3.4-107 .2-35.6-.9-71.2-3.3-106.9zM207 353.9V157.4l145 98.2-145 98.3z"/></svg></svg>