<svg height="18" width="18" xmlns="http://www.w3.org/2000/svg"><g fill="none" fill-rule="evenodd" id="Page-1" stroke="none" stroke-width="1"><g fill="#000" id="Core" transform="translate(-45 -423)"><g id="settings-phone" transform="translate(45 423)"><path d="M10 6H8v2h2V6zm4 0h-2v2h2V6zm3 6.5c-1.2 0-2.4-.2-3.6-.6-.3-.1-.7 0-1 .2l-2.2 2.2c-2.8-1.4-5.1-3.8-6.6-6.6l2.2-2.2c.3-.3.4-.7.2-1-.3-1.1-.5-2.3-.5-3.5 0-.6-.4-1-1-1H1C.4 0 0 .4 0 1c0 9.4 7.6 17 17 17 .6 0 1-.4 1-1v-3.5c0-.6-.4-1-1-1zM16 6v2h2V6h-2z" id="Shape"/></g></g></g></svg>